
Format : MPEG-4
Format profile : Base Media / Version 2
Codec ID : mp42
File size : 481 MiB
Duration : 1h 57mn
Overall bit rate : 574 Kbps
Encoded date : UTC 2010-10-13 14:06:09
Tagged date : UTC 2010-10-13 14:07:13
Writing application : mp4creator 1.6.1d

Video
ID : 1
Format : AVC
Format/Info : Advanced Video Codec
Format profile : Baseline@L1.3
Format settings, CABAC : No
Format settings, ReFrames : 1 frame
Codec ID : avc1
Codec ID/Info : Advanced Video Coding
Duration : 1h 57mn
Bit rate mode : Variable
Bit rate : 510 Kbps
Width : 480 pixels
Height : 272 pixels
Display aspect ratio : 16:9
Original display aspect ratio : 16:9
Frame rate mode : Constant
Frame rate : 24.000 fps
Resolution : 24 bits
Colorimetry : 4:2:0
Scan type : Progressive
Bits/(Pixel*Frame) : 0.163
Stream size : 427 MiB (89%)
Encoded date : UTC 2010-10-13 14:06:09
Tagged date : UTC 2010-10-13 14:07:07

Audio
ID : 2
Format : AAC
Format/Info : Advanced Audio Codec
Format version : Version 4
Format profile : LC
Format settings, SBR : Yes
Format settings, PS : No
Codec ID : 40
Duration : 1h 57mn
Bit rate mode : Variable
Bit rate : 62.7 Kbps
Maximum bit rate : 178 Kbps
Channel(s) : 2 channels
Channel positions : L R
Sampling rate : 48.0 KHz
Resolution : 16 bits
Stream size : 52.5 MiB (11%)
Encoded date : UTC 2010-10-13 14:07:07
Tagged date : UTC 2010-10-13 14:07:13

BENEATH HILL 60 is the action packed story of Australia's cat-and-mouse underground mine warfare - one of the most misunderstood, misrepresented, and mystifying conflicts of WW I. It was secret struggle BENEATH the Western Front that combined daring engineering, technology and science. Few on the surface knew of the brave, claustrophobic and sometimes barbaric work of these tunnellers.
 
http://www.imdb.com/title/tt1418646/

screen shots
 
http://img177.imageshack.us/img177/4885/beneathhill60h264vicemp.jpg 
http://img219.imageshack.us/img219/4885/beneathhill60h264vicemp.jpg 
http://img545.imageshack.us/img545/4885/beneathhill60h264vicemp.jpg 
http://img218.imageshack.us/img218/4885/beneathhill60h264vicemp.jpg
 
http://img156.imageshack.us/img156/4885/beneathhill60h264vicemp.jpg